<mxfile host="Electron" modified="2023-09-15T14:03:48.157Z" agent="Mozilla/5.0 (Macintosh; Intel Mac OS X 10_15_7) AppleWebKit/537.36 (KHTML, like Gecko) draw.io/21.7.5 Chrome/114.0.5735.289 Electron/25.8.1 Safari/537.36" etag="E5ps8F79y0tY5vY7VoY6" version="21.7.5" type="device">
  <diagram name="Страница — 1" id="eJP1Y0jSKR_5PrYBc0iu">
    <mxGraphModel dx="2389" dy="2154" grid="1" gridSize="10" guides="1" tooltips="1" connect="1" arrows="1" fold="1" page="1" pageScale="1" pageWidth="827" pageHeight="1169" math="0" shadow="0">
      <root>
        <mxCell id="0" />
        <mxCell id="1" parent="0" />
        <mxCell id="JBMRmowCIEJMS9PrakQp-1" value="Actor" style="shape=umlActor;verticalLabelPosition=bottom;verticalAlign=top;html=1;outlineConnect=0;" vertex="1" parent="1">
          <mxGeometry x="-270" y="435" width="30" height="60" as="geometry" />
        </mxCell>
        <mxCell id="JBMRmowCIEJMS9PrakQp-2" value="&lt;br&gt;Регистрация /&lt;br style=&quot;border-color: var(--border-color);&quot;&gt;авторизация" style="ellipse;whiteSpace=wrap;html=1;verticalAlign=top;align=center;" vertex="1" parent="1">
          <mxGeometry x="-190" y="430" width="115" height="70" as="geometry" />
        </mxCell>
        <mxCell id="JBMRmowCIEJMS9PrakQp-6" value="" style="ellipse;whiteSpace=wrap;html=1;" vertex="1" parent="1">
          <mxGeometry x="380" y="290" width="120" height="80" as="geometry" />
        </mxCell>
        <mxCell id="JBMRmowCIEJMS9PrakQp-7" value="Настройки" style="text;html=1;strokeColor=none;fillColor=none;align=center;verticalAlign=middle;whiteSpace=wrap;rounded=0;" vertex="1" parent="1">
          <mxGeometry x="395" y="300" width="90" height="60" as="geometry" />
        </mxCell>
        <mxCell id="JBMRmowCIEJMS9PrakQp-8" value="" style="ellipse;whiteSpace=wrap;html=1;" vertex="1" parent="1">
          <mxGeometry x="380" y="430" width="120" height="80" as="geometry" />
        </mxCell>
        <mxCell id="JBMRmowCIEJMS9PrakQp-9" value="Уборка" style="text;html=1;strokeColor=none;fillColor=none;align=center;verticalAlign=middle;whiteSpace=wrap;rounded=0;" vertex="1" parent="1">
          <mxGeometry x="395" y="440" width="90" height="60" as="geometry" />
        </mxCell>
        <mxCell id="JBMRmowCIEJMS9PrakQp-12" value="" style="ellipse;whiteSpace=wrap;html=1;" vertex="1" parent="1">
          <mxGeometry x="310" y="140" width="120" height="80" as="geometry" />
        </mxCell>
        <mxCell id="JBMRmowCIEJMS9PrakQp-13" value="Настроить&lt;br&gt;расписание" style="text;html=1;strokeColor=none;fillColor=none;align=center;verticalAlign=middle;whiteSpace=wrap;rounded=0;" vertex="1" parent="1">
          <mxGeometry x="325" y="150" width="90" height="60" as="geometry" />
        </mxCell>
        <mxCell id="JBMRmowCIEJMS9PrakQp-14" value="&lt;meta charset=&quot;utf-8&quot;&gt;&lt;span style=&quot;color: rgb(0, 0, 0); font-family: Helvetica; font-size: 12px; font-style: normal; font-variant-ligatures: normal; font-variant-caps: normal; font-weight: 400; letter-spacing: normal; orphans: 2; text-align: center; text-indent: 0px; text-transform: none; widows: 2; word-spacing: 0px; -webkit-text-stroke-width: 0px; background-color: rgb(251, 251, 251); text-decoration-thickness: initial; text-decoration-style: initial; text-decoration-color: initial; float: none; display: inline !important;&quot;&gt;Обновление:&lt;/span&gt;&lt;br style=&quot;border-color: var(--border-color); color: rgb(0, 0, 0); font-family: Helvetica; font-size: 12px; font-style: normal; font-variant-ligatures: normal; font-variant-caps: normal; font-weight: 400; letter-spacing: normal; orphans: 2; text-align: center; text-indent: 0px; text-transform: none; widows: 2; word-spacing: 0px; -webkit-text-stroke-width: 0px; background-color: rgb(251, 251, 251); text-decoration-thickness: initial; text-decoration-style: initial; text-decoration-color: initial;&quot;&gt;&lt;span style=&quot;color: rgb(0, 0, 0); font-family: Helvetica; font-size: 12px; font-style: normal; font-variant-ligatures: normal; font-variant-caps: normal; font-weight: 400; letter-spacing: normal; orphans: 2; text-align: center; text-indent: 0px; text-transform: none; widows: 2; word-spacing: 0px; -webkit-text-stroke-width: 0px; background-color: rgb(251, 251, 251); text-decoration-thickness: initial; text-decoration-style: initial; text-decoration-color: initial; float: none; display: inline !important;&quot;&gt;авто: вкл/выкл&lt;/span&gt;" style="ellipse;whiteSpace=wrap;html=1;" vertex="1" parent="1">
          <mxGeometry x="490" y="-20" width="120" height="80" as="geometry" />
        </mxCell>
        <mxCell id="JBMRmowCIEJMS9PrakQp-16" value="Убрать все" style="ellipse;whiteSpace=wrap;html=1;" vertex="1" parent="1">
          <mxGeometry x="580" y="350" width="120" height="80" as="geometry" />
        </mxCell>
        <mxCell id="JBMRmowCIEJMS9PrakQp-18" value="Убрать комнату" style="ellipse;whiteSpace=wrap;html=1;" vertex="1" parent="1">
          <mxGeometry x="580" y="450" width="120" height="80" as="geometry" />
        </mxCell>
        <mxCell id="JBMRmowCIEJMS9PrakQp-20" value="" style="endArrow=classic;html=1;rounded=0;entryX=0;entryY=0.5;entryDx=0;entryDy=0;exitX=1;exitY=0.5;exitDx=0;exitDy=0;" edge="1" parent="1" source="JBMRmowCIEJMS9PrakQp-36" target="JBMRmowCIEJMS9PrakQp-8">
          <mxGeometry width="50" height="50" relative="1" as="geometry">
            <mxPoint x="330" y="470" as="sourcePoint" />
            <mxPoint x="440" y="480" as="targetPoint" />
          </mxGeometry>
        </mxCell>
        <mxCell id="JBMRmowCIEJMS9PrakQp-21" value="" style="endArrow=classic;html=1;rounded=0;entryX=0;entryY=0.5;entryDx=0;entryDy=0;exitX=1;exitY=0;exitDx=0;exitDy=0;" edge="1" parent="1" source="JBMRmowCIEJMS9PrakQp-8" target="JBMRmowCIEJMS9PrakQp-16">
          <mxGeometry width="50" height="50" relative="1" as="geometry">
            <mxPoint x="390" y="530" as="sourcePoint" />
            <mxPoint x="440" y="480" as="targetPoint" />
          </mxGeometry>
        </mxCell>
        <mxCell id="JBMRmowCIEJMS9PrakQp-22" value="" style="endArrow=classic;html=1;rounded=0;entryX=0;entryY=0.5;entryDx=0;entryDy=0;exitX=1;exitY=0.5;exitDx=0;exitDy=0;" edge="1" parent="1" source="JBMRmowCIEJMS9PrakQp-8" target="JBMRmowCIEJMS9PrakQp-18">
          <mxGeometry width="50" height="50" relative="1" as="geometry">
            <mxPoint x="390" y="530" as="sourcePoint" />
            <mxPoint x="440" y="480" as="targetPoint" />
          </mxGeometry>
        </mxCell>
        <mxCell id="JBMRmowCIEJMS9PrakQp-23" value="" style="endArrow=classic;html=1;rounded=0;entryX=0.5;entryY=1;entryDx=0;entryDy=0;exitX=1;exitY=0;exitDx=0;exitDy=0;" edge="1" parent="1" source="JBMRmowCIEJMS9PrakQp-36" target="JBMRmowCIEJMS9PrakQp-6">
          <mxGeometry width="50" height="50" relative="1" as="geometry">
            <mxPoint x="310" y="400" as="sourcePoint" />
            <mxPoint x="440" y="480" as="targetPoint" />
          </mxGeometry>
        </mxCell>
        <mxCell id="JBMRmowCIEJMS9PrakQp-24" value="" style="endArrow=classic;html=1;rounded=0;entryX=0.5;entryY=1;entryDx=0;entryDy=0;exitX=0;exitY=0;exitDx=0;exitDy=0;" edge="1" parent="1" source="JBMRmowCIEJMS9PrakQp-6" target="JBMRmowCIEJMS9PrakQp-12">
          <mxGeometry width="50" height="50" relative="1" as="geometry">
            <mxPoint x="390" y="530" as="sourcePoint" />
            <mxPoint x="440" y="480" as="targetPoint" />
          </mxGeometry>
        </mxCell>
        <mxCell id="JBMRmowCIEJMS9PrakQp-25" value="" style="endArrow=classic;html=1;rounded=0;entryX=0.5;entryY=1;entryDx=0;entryDy=0;exitX=1;exitY=0;exitDx=0;exitDy=0;" edge="1" parent="1" source="JBMRmowCIEJMS9PrakQp-6" target="JBMRmowCIEJMS9PrakQp-14">
          <mxGeometry width="50" height="50" relative="1" as="geometry">
            <mxPoint x="390" y="530" as="sourcePoint" />
            <mxPoint x="440" y="480" as="targetPoint" />
          </mxGeometry>
        </mxCell>
        <mxCell id="JBMRmowCIEJMS9PrakQp-26" value="Обслуживание" style="ellipse;whiteSpace=wrap;html=1;" vertex="1" parent="1">
          <mxGeometry x="395" y="70" width="120" height="80" as="geometry" />
        </mxCell>
        <mxCell id="JBMRmowCIEJMS9PrakQp-28" value="" style="endArrow=classic;html=1;rounded=0;entryX=0.5;entryY=1;entryDx=0;entryDy=0;exitX=0.5;exitY=0;exitDx=0;exitDy=0;" edge="1" parent="1" source="JBMRmowCIEJMS9PrakQp-6" target="JBMRmowCIEJMS9PrakQp-26">
          <mxGeometry width="50" height="50" relative="1" as="geometry">
            <mxPoint x="390" y="530" as="sourcePoint" />
            <mxPoint x="440" y="480" as="targetPoint" />
          </mxGeometry>
        </mxCell>
        <mxCell id="JBMRmowCIEJMS9PrakQp-29" value="" style="endArrow=classic;html=1;rounded=0;entryX=0.5;entryY=1;entryDx=0;entryDy=0;exitX=1;exitY=0.5;exitDx=0;exitDy=0;" edge="1" parent="1" source="JBMRmowCIEJMS9PrakQp-6" target="JBMRmowCIEJMS9PrakQp-30">
          <mxGeometry width="50" height="50" relative="1" as="geometry">
            <mxPoint x="390" y="530" as="sourcePoint" />
            <mxPoint x="440" y="480" as="targetPoint" />
          </mxGeometry>
        </mxCell>
        <mxCell id="JBMRmowCIEJMS9PrakQp-30" value="" style="ellipse;whiteSpace=wrap;html=1;" vertex="1" parent="1">
          <mxGeometry x="580" y="50" width="120" height="80" as="geometry" />
        </mxCell>
        <mxCell id="JBMRmowCIEJMS9PrakQp-31" value="Параметры уборки" style="text;html=1;strokeColor=none;fillColor=none;align=center;verticalAlign=middle;whiteSpace=wrap;rounded=0;" vertex="1" parent="1">
          <mxGeometry x="595" y="60" width="90" height="60" as="geometry" />
        </mxCell>
        <mxCell id="JBMRmowCIEJMS9PrakQp-32" value="" style="endArrow=classic;html=1;rounded=0;entryX=0;entryY=0.5;entryDx=0;entryDy=0;exitX=0.95;exitY=0.738;exitDx=0;exitDy=0;exitPerimeter=0;" edge="1" parent="1" source="JBMRmowCIEJMS9PrakQp-6" target="JBMRmowCIEJMS9PrakQp-33">
          <mxGeometry width="50" height="50" relative="1" as="geometry">
            <mxPoint x="390" y="530" as="sourcePoint" />
            <mxPoint x="440" y="480" as="targetPoint" />
          </mxGeometry>
        </mxCell>
        <mxCell id="JBMRmowCIEJMS9PrakQp-33" value="Совместное&lt;br style=&quot;border-color: var(--border-color);&quot;&gt;управление" style="ellipse;whiteSpace=wrap;html=1;" vertex="1" parent="1">
          <mxGeometry x="670" y="130" width="120" height="80" as="geometry" />
        </mxCell>
        <mxCell id="JBMRmowCIEJMS9PrakQp-35" value="" style="endArrow=classic;html=1;rounded=0;entryX=0;entryY=0.5;entryDx=0;entryDy=0;" edge="1" parent="1" source="JBMRmowCIEJMS9PrakQp-1" target="JBMRmowCIEJMS9PrakQp-2">
          <mxGeometry width="50" height="50" relative="1" as="geometry">
            <mxPoint x="197.5" y="525" as="sourcePoint" />
            <mxPoint x="247.5" y="475" as="targetPoint" />
          </mxGeometry>
        </mxCell>
        <mxCell id="JBMRmowCIEJMS9PrakQp-36" value="&lt;br&gt;выбор робота" style="ellipse;whiteSpace=wrap;html=1;verticalAlign=top;align=center;" vertex="1" parent="1">
          <mxGeometry x="70" y="437.5" width="180" height="55" as="geometry" />
        </mxCell>
        <mxCell id="JBMRmowCIEJMS9PrakQp-39" value="&lt;br&gt;Первое включение" style="ellipse;whiteSpace=wrap;html=1;verticalAlign=top;align=center;" vertex="1" parent="1">
          <mxGeometry x="-60" y="340" width="115" height="55" as="geometry" />
        </mxCell>
        <mxCell id="JBMRmowCIEJMS9PrakQp-40" value="&lt;br&gt;Добавление&lt;br&gt;нового робота" style="ellipse;whiteSpace=wrap;html=1;verticalAlign=top;align=center;" vertex="1" parent="1">
          <mxGeometry x="-60" y="530" width="115" height="70" as="geometry" />
        </mxCell>
        <mxCell id="JBMRmowCIEJMS9PrakQp-41" value="" style="endArrow=classic;html=1;rounded=0;exitX=1;exitY=1;exitDx=0;exitDy=0;entryX=0;entryY=0;entryDx=0;entryDy=0;" edge="1" parent="1" source="JBMRmowCIEJMS9PrakQp-2" target="JBMRmowCIEJMS9PrakQp-40">
          <mxGeometry width="50" height="50" relative="1" as="geometry">
            <mxPoint x="390" y="530" as="sourcePoint" />
            <mxPoint x="440" y="480" as="targetPoint" />
          </mxGeometry>
        </mxCell>
        <mxCell id="JBMRmowCIEJMS9PrakQp-42" value="" style="endArrow=classic;html=1;rounded=0;exitX=1;exitY=0;exitDx=0;exitDy=0;entryX=0;entryY=1;entryDx=0;entryDy=0;" edge="1" parent="1" source="JBMRmowCIEJMS9PrakQp-2" target="JBMRmowCIEJMS9PrakQp-39">
          <mxGeometry width="50" height="50" relative="1" as="geometry">
            <mxPoint x="-85" y="500" as="sourcePoint" />
            <mxPoint x="-48" y="535" as="targetPoint" />
          </mxGeometry>
        </mxCell>
        <mxCell id="JBMRmowCIEJMS9PrakQp-43" value="" style="endArrow=classic;html=1;rounded=0;exitX=1;exitY=1;exitDx=0;exitDy=0;entryX=0;entryY=0;entryDx=0;entryDy=0;" edge="1" parent="1" source="JBMRmowCIEJMS9PrakQp-39" target="JBMRmowCIEJMS9PrakQp-36">
          <mxGeometry width="50" height="50" relative="1" as="geometry">
            <mxPoint x="-75" y="510" as="sourcePoint" />
            <mxPoint x="-38" y="545" as="targetPoint" />
          </mxGeometry>
        </mxCell>
        <mxCell id="JBMRmowCIEJMS9PrakQp-44" value="" style="endArrow=classic;html=1;rounded=0;exitX=1;exitY=0;exitDx=0;exitDy=0;entryX=0;entryY=1;entryDx=0;entryDy=0;" edge="1" parent="1" source="JBMRmowCIEJMS9PrakQp-40" target="JBMRmowCIEJMS9PrakQp-36">
          <mxGeometry width="50" height="50" relative="1" as="geometry">
            <mxPoint x="48" y="397" as="sourcePoint" />
            <mxPoint x="76" y="448" as="targetPoint" />
          </mxGeometry>
        </mxCell>
        <mxCell id="JBMRmowCIEJMS9PrakQp-49" value="Статистика" style="ellipse;whiteSpace=wrap;html=1;" vertex="1" parent="1">
          <mxGeometry x="205" y="210" width="120" height="80" as="geometry" />
        </mxCell>
        <mxCell id="JBMRmowCIEJMS9PrakQp-50" value="" style="endArrow=classic;html=1;rounded=0;entryX=1;entryY=1;entryDx=0;entryDy=0;exitX=0;exitY=0.5;exitDx=0;exitDy=0;" edge="1" parent="1" source="JBMRmowCIEJMS9PrakQp-6" target="JBMRmowCIEJMS9PrakQp-49">
          <mxGeometry width="50" height="50" relative="1" as="geometry">
            <mxPoint x="390" y="390" as="sourcePoint" />
            <mxPoint x="440" y="340" as="targetPoint" />
          </mxGeometry>
        </mxCell>
        <mxCell id="JBMRmowCIEJMS9PrakQp-53" value="Режим уборки" style="ellipse;whiteSpace=wrap;html=1;" vertex="1" parent="1">
          <mxGeometry x="530" y="560" width="120" height="80" as="geometry" />
        </mxCell>
        <mxCell id="JBMRmowCIEJMS9PrakQp-54" value="" style="endArrow=classic;html=1;rounded=0;entryX=0;entryY=0;entryDx=0;entryDy=0;exitX=0.767;exitY=0.963;exitDx=0;exitDy=0;exitPerimeter=0;" edge="1" parent="1" source="JBMRmowCIEJMS9PrakQp-8" target="JBMRmowCIEJMS9PrakQp-53">
          <mxGeometry width="50" height="50" relative="1" as="geometry">
            <mxPoint x="390" y="390" as="sourcePoint" />
            <mxPoint x="440" y="340" as="targetPoint" />
          </mxGeometry>
        </mxCell>
        <mxCell id="JBMRmowCIEJMS9PrakQp-55" value="Сухая" style="ellipse;whiteSpace=wrap;html=1;" vertex="1" parent="1">
          <mxGeometry x="430" y="660" width="120" height="80" as="geometry" />
        </mxCell>
        <mxCell id="JBMRmowCIEJMS9PrakQp-56" value="Влажная" style="ellipse;whiteSpace=wrap;html=1;" vertex="1" parent="1">
          <mxGeometry x="530" y="730" width="120" height="80" as="geometry" />
        </mxCell>
        <mxCell id="JBMRmowCIEJMS9PrakQp-57" value="Комбинировнная" style="ellipse;whiteSpace=wrap;html=1;" vertex="1" parent="1">
          <mxGeometry x="630" y="660" width="120" height="80" as="geometry" />
        </mxCell>
        <mxCell id="JBMRmowCIEJMS9PrakQp-58" value="" style="endArrow=classic;html=1;rounded=0;entryX=1;entryY=0;entryDx=0;entryDy=0;exitX=0;exitY=1;exitDx=0;exitDy=0;" edge="1" parent="1" source="JBMRmowCIEJMS9PrakQp-53" target="JBMRmowCIEJMS9PrakQp-55">
          <mxGeometry width="50" height="50" relative="1" as="geometry">
            <mxPoint x="390" y="390" as="sourcePoint" />
            <mxPoint x="440" y="340" as="targetPoint" />
          </mxGeometry>
        </mxCell>
        <mxCell id="JBMRmowCIEJMS9PrakQp-59" value="" style="endArrow=classic;html=1;rounded=0;entryX=0;entryY=0;entryDx=0;entryDy=0;exitX=1;exitY=1;exitDx=0;exitDy=0;" edge="1" parent="1" source="JBMRmowCIEJMS9PrakQp-53" target="JBMRmowCIEJMS9PrakQp-57">
          <mxGeometry width="50" height="50" relative="1" as="geometry">
            <mxPoint x="558" y="638" as="sourcePoint" />
            <mxPoint x="542" y="682" as="targetPoint" />
          </mxGeometry>
        </mxCell>
        <mxCell id="JBMRmowCIEJMS9PrakQp-60" value="" style="endArrow=classic;html=1;rounded=0;entryX=0.5;entryY=0;entryDx=0;entryDy=0;exitX=0.5;exitY=1;exitDx=0;exitDy=0;" edge="1" parent="1" source="JBMRmowCIEJMS9PrakQp-53" target="JBMRmowCIEJMS9PrakQp-56">
          <mxGeometry width="50" height="50" relative="1" as="geometry">
            <mxPoint x="568" y="648" as="sourcePoint" />
            <mxPoint x="552" y="692" as="targetPoint" />
          </mxGeometry>
        </mxCell>
      </root>
    </mxGraphModel>
  </diagram>
</mxfile>
